<svg width="48" height="48" viewBox="0 0 48 48" fill="none" xmlns="http://www.w3.org/2000/svg">
<path d="M16 27H32M16 17H24" stroke="#4AF296" stroke-width="2" stroke-linecap="round" stroke-linejoin="round"/>
<path d="M12.1976 38C9.5974 37.7442 7.64951 36.9632 6.34315 35.6569C4 33.3137 4 29.5425 4 22V21C4 13.4575 4 9.68629 6.34315 7.34315C8.68629 5 12.4575 5 20 5H28C35.5425 5 39.3137 5 41.6569 7.34315C44 9.68629 44 13.4575 44 21V22C44 29.5425 44 33.3137 41.6569 35.6569C39.3137 38 35.5425 38 28 38C26.8791 38.025 25.9863 38.1103 25.1092 38.3101C22.7125 38.8618 20.493 40.0883 18.2997 41.1578C15.1746 42.6816 13.612 43.4436 12.6314 42.7302C10.7554 41.333 12.5891 37.0037 13 35" stroke="#4AF296" stroke-width="2" stroke-linecap="round"/>
</svg>
