<svg width="166" height="166" viewBox="0 0 166 166" fill="none" xmlns="http://www.w3.org/2000/svg">
<path d="M107.762 82.9999C107.762 96.6949 96.6949 107.762 82.9999 107.762C69.3049 107.762 58.2383 96.6949 58.2383 82.9999C58.2383 69.3049 69.3049 58.2383 82.9999 58.2383C96.6949 58.2383 107.762 69.3049 107.762 82.9999Z" stroke="#567DE1" stroke-width="12" stroke-linecap="round" stroke-linejoin="round"/>
<path d="M82.9999 140.201C107.416 140.201 130.172 125.815 146.011 100.915C152.236 91.1621 152.236 74.7696 146.011 65.0171C130.172 40.1171 107.416 25.7305 82.9999 25.7305C58.5841 25.7305 35.8282 40.1171 19.9891 65.0171C13.7641 74.7696 13.7641 91.1621 19.9891 100.915C35.8282 125.815 58.5841 140.201 82.9999 140.201Z" stroke="#567DE1" stroke-width="12" stroke-linecap="round" stroke-linejoin="round"/>
</svg>
