<svg width="334" height="351" viewBox="0 0 334 351" fill="none" xmlns="http://www.w3.org/2000/svg">
<g filter="url(#filter0_d_65_528)">
<path d="M224.828 165.155V141.431C224.828 132.923 218.327 123.516 210.373 120.542L175.858 107.608C170.118 105.464 160.711 105.464 154.97 107.608L120.456 120.611C112.502 123.586 106 132.992 106 141.431V192.821C106 200.983 111.395 211.704 117.966 216.615L147.708 238.817C152.549 242.552 158.982 244.351 165.414 244.351" stroke="#EA494B" stroke-width="12" stroke-linecap="round" stroke-linejoin="round"/>
<path d="M193.081 230.517C208.361 230.517 220.747 218.13 220.747 202.85C220.747 187.57 208.361 175.184 193.081 175.184C177.801 175.184 165.414 187.57 165.414 202.85C165.414 218.13 177.801 230.517 193.081 230.517Z" stroke="#EA494B" stroke-width="12" stroke-linecap="round" stroke-linejoin="round"/>
<path d="M227.632 237.434H227.695" stroke="#EA494B" stroke-width="12" stroke-linecap="round" stroke-linejoin="round"/>
</g>
<defs>
<filter id="filter0_d_65_528" x="-17.5859" y="-7.81641" width="366" height="366" filterUnits="userSpaceOnUse" color-interpolation-filters="sRGB">
<feFlood flood-opacity="0" result="BackgroundImageFix"/>
<feColorMatrix in="SourceAlpha" type="matrix" values="0 0 0 0 0 0 0 0 0 0 0 0 0 0 0 0 0 0 127 0" result="hardAlpha"/>
<feOffset/>
<feGaussianBlur stdDeviation="50"/>
<feComposite in2="hardAlpha" operator="out"/>
<feColorMatrix type="matrix" values="0 0 0 0 0.917647 0 0 0 0 0.286275 0 0 0 0 0.294118 0 0 0 1 0"/>
<feBlend mode="normal" in2="BackgroundImageFix" result="effect1_dropShadow_65_528"/>
<feBlend mode="normal" in="SourceGraphic" in2="effect1_dropShadow_65_528" result="shape"/>
</filter>
</defs>
</svg>
