<svg width="48" height="48" viewBox="0 0 48 48" fill="none" xmlns="http://www.w3.org/2000/svg">
<foreignObject x="-4" y="-4" width="56" height="56"><div xmlns="http://www.w3.org/1999/xhtml" style="backdrop-filter:blur(2px);clip-path:url(#bgblur_0_460_629_clip_path);height:100%;width:100%"></div></foreignObject><rect data-figma-bg-blur-radius="4" width="48" height="48" rx="16" fill="#4AF296" fill-opacity="0.24"/>
<path d="M19.0007 40.6668H29.0007C37.334 40.6668 40.6673 37.3335 40.6673 29.0002V19.0002C40.6673 10.6668 37.334 7.3335 29.0007 7.3335H19.0007C10.6673 7.3335 7.33398 10.6668 7.33398 19.0002V29.0002C7.33398 37.3335 10.6673 40.6668 19.0007 40.6668Z" stroke="#1C1C1C" stroke-width="1.5" stroke-linecap="round" stroke-linejoin="round"/>
<path d="M15.666 17.75C17.3327 19.4167 20.0493 19.4167 21.7327 17.75" stroke="#1C1C1C" stroke-width="1.5" stroke-miterlimit="10" stroke-linecap="round" stroke-linejoin="round"/>
<path d="M26.2676 17.75C27.9342 19.4167 30.6509 19.4167 32.3342 17.75" stroke="#1C1C1C" stroke-width="1.5" stroke-miterlimit="10" stroke-linecap="round" stroke-linejoin="round"/>
<path d="M18 25.6665H30C30.8333 25.6665 31.5 26.3332 31.5 27.1665C31.5 31.3165 28.15 34.6665 24 34.6665C19.85 34.6665 16.5 31.3165 16.5 27.1665C16.5 26.3332 17.1667 25.6665 18 25.6665Z" stroke="#1C1C1C" stroke-width="1.5" stroke-miterlimit="10" stroke-linecap="round" stroke-linejoin="round"/>
<defs>
<clipPath id="bgblur_0_460_629_clip_path" transform="translate(4 4)"><rect width="48" height="48" rx="16"/>
</clipPath></defs>
</svg>
