<svg width="48" height="48" viewBox="0 0 48 48" fill="none" xmlns="http://www.w3.org/2000/svg">
<foreignObject x="-4" y="-4" width="56" height="56"><div xmlns="http://www.w3.org/1999/xhtml" style="backdrop-filter:blur(2px);clip-path:url(#bgblur_0_48_789_clip_path);height:100%;width:100%"></div></foreignObject><rect data-figma-bg-blur-radius="4" width="48" height="48" rx="16" fill="#F24A4A" fill-opacity="0.24"/>
<path d="M19.0007 40.6668H29.0007C37.334 40.6668 40.6673 37.3335 40.6673 29.0002V19.0002C40.6673 10.6668 37.334 7.3335 29.0007 7.3335H19.0007C10.6673 7.3335 7.33398 10.6668 7.33398 19.0002V29.0002C7.33398 37.3335 10.6673 40.6668 19.0007 40.6668Z" stroke="white" stroke-width="1.5" stroke-linecap="round" stroke-linejoin="round"/>
<path d="M15.666 18.5835C17.3327 16.9168 20.0493 16.9168 21.7327 18.5835" stroke="white" stroke-width="1.5" stroke-miterlimit="10" stroke-linecap="round" stroke-linejoin="round"/>
<path d="M26.2676 18.5835C27.9342 16.9168 30.6509 16.9168 32.3342 18.5835" stroke="white" stroke-width="1.5" stroke-miterlimit="10" stroke-linecap="round" stroke-linejoin="round"/>
<path d="M18 33.5H30C30.8333 33.5 31.5 32.8333 31.5 32C31.5 27.85 28.15 24.5 24 24.5C19.85 24.5 16.5 27.85 16.5 32C16.5 32.8333 17.1667 33.5 18 33.5Z" stroke="white" stroke-width="1.5" stroke-miterlimit="10" stroke-linecap="round" stroke-linejoin="round"/>
<defs>
<clipPath id="bgblur_0_48_789_clip_path" transform="translate(4 4)"><rect width="48" height="48" rx="16"/>
</clipPath></defs>
</svg>
